<svg version="1.1" xmlns="http://www.w3.org/2000/svg" viewBox="0 0 962.3999633789062 388.8000183105469" width="962.3999633789062" height="388.8000183105469">
  <!-- svg-source:excalidraw -->
  
  <defs>
    <style class="style-fonts">
      @font-face {
        font-family: "Virgil";
        src: url("https://excalidraw.com/Virgil.woff2");
      }
      @font-face {
        font-family: "Cascadia";
        src: url("https://excalidraw.com/Cascadia.woff2");
      }
      @font-face {
        font-family: "Assistant";
        src: url("https://excalidraw.com/Assistant-Regular.woff2");
      }
    </style>
    
  </defs>
  <g stroke-linecap="round" transform="translate(10 10) rotate(0 140.80001831054688 50)"><path d="M25 0 C115.25 -1.32, 209.38 -1.19, 256.6 0 M25 0 C81.35 1.1, 137.74 1.11, 256.6 0 M256.6 0 C273.16 -1.65, 282.04 7.29, 281.6 25 M256.6 0 C271.32 -1.28, 279.45 6.36, 281.6 25 M281.6 25 C283.61 34.75, 282.41 49.25, 281.6 75 M281.6 25 C282.08 43, 281.35 60.28, 281.6 75 M281.6 75 C279.87 90.38, 271.7 99.63, 256.6 100 M281.6 75 C280.33 91.4, 272.2 97.88, 256.6 100 M256.6 100 C191.98 96.68, 126.33 96.54, 25 100 M256.6 100 C167.68 99.58, 78.55 99.29, 25 100 M25 100 C6.48 98.73, 1.29 90.09, 0 75 M25 100 C7.83 100.71, 0.23 90.72, 0 75 M0 75 C-1.34 58.68, 1.74 40.47, 0 25 M0 75 C0.78 64.35, 0.25 54.49, 0 25 M0 25 C-0.88 9.38, 7.64 1.7, 25 0 M0 25 C-1.19 9.3, 8.61 1.23, 25 0" stroke="#1e1e1e" stroke-width="2" fill="none"></path></g><g stroke-linecap="round" transform="translate(17 150.00003051757812) rotate(0 131.59999084472656 48)"><path d="M24 0 C108.04 -0.31, 191.68 -0.89, 239.2 0 M24 0 C67.96 -1.41, 113.57 -1.13, 239.2 0 M239.2 0 C254.38 0.91, 263.66 7.4, 263.2 24 M239.2 0 C253.79 1.1, 265.33 8.02, 263.2 24 M263.2 24 C264.53 33.91, 263.47 45.4, 263.2 72 M263.2 24 C264.3 35.77, 263.87 48.71, 263.2 72 M263.2 72 C264.27 86.93, 256.51 96.01, 239.2 96 M263.2 72 C261.21 87.13, 257.33 94.5, 239.2 96 M239.2 96 C169.49 98.56, 97.76 96.41, 24 96 M239.2 96 C160.96 95.51, 84.1 94.96, 24 96 M24 96 C9.84 96.91, 1.2 89.15, 0 72 M24 96 C6.58 96.09, 0.66 88.56, 0 72 M0 72 C0.28 59, -1.55 48.52, 0 24 M0 72 C0.34 54.04, 0.3 36.77, 0 24 M0 24 C-1.35 9.01, 9.79 1.53, 24 0 M0 24 C2.02 8.5, 8.76 0.35, 24 0" stroke="#1e1e1e" stroke-width="2" fill="none"></path></g><g stroke-linecap="round" transform="translate(21 287.6000061035156) rotate(0 135.20001220703125 45.600006103515625)"><path d="M22.8 0 C108.48 -2.35, 195.65 -2.65, 247.6 0 M22.8 0 C103.25 -1.5, 183.18 -1.22, 247.6 0 M247.6 0 C262.2 1.15, 272.38 7.84, 270.4 22.8 M247.6 0 C262.88 -1.21, 270.67 7.78, 270.4 22.8 M270.4 22.8 C271.37 36.27, 269.27 55.55, 270.4 68.4 M270.4 22.8 C271.22 36.44, 270.66 52.42, 270.4 68.4 M270.4 68.4 C268.42 84.34, 262.35 91.09, 247.6 91.2 M270.4 68.4 C268.54 85.1, 264.8 89.91, 247.6 91.2 M247.6 91.2 C181.97 90.51, 118.47 91.4, 22.8 91.2 M247.6 91.2 C172.71 90.25, 98.73 90.05, 22.8 91.2 M22.8 91.2 C6.62 92.09, 0.96 83.25, 0 68.4 M22.8 91.2 C5.84 91.29, 0.55 82.47, 0 68.4 M0 68.4 C0.08 54.22, -0.33 38.97, 0 22.8 M0 68.4 C-0.67 60.13, -0.99 51, 0 22.8 M0 22.8 C-0.49 7.38, 8.5 0.54, 22.8 0 M0 22.8 C-1.99 8.11, 9.15 1.39, 22.8 0" stroke="#1e1e1e" stroke-width="2" fill="none"></path></g><g transform="translate(91.00003051757812 49.20001220703125) rotate(0 51.549949645996094 12.5)"><text x="0" y="17.52" font-family="Virgil, Segoe UI Emoji" font-size="20px" fill="#1e1e1e" text-anchor="start" style="white-space: pre;" direction="ltr" dominant-baseline="alphabetic">Fragment 1</text></g><g transform="translate(141.39999389648438 185.20001220703125) rotate(0 8.219993591308594 12.5)"><text x="0" y="17.52" font-family="Virgil, Segoe UI Emoji" font-size="20px" fill="#1e1e1e" text-anchor="start" style="white-space: pre;" direction="ltr" dominant-baseline="alphabetic">...</text></g><g transform="translate(98.20001220703125 321.1999816894531) rotate(0 53.50994873046875 12.5)"><text x="0" y="17.52" font-family="Virgil, Segoe UI Emoji" font-size="20px" fill="#1e1e1e" text-anchor="start" style="white-space: pre;" direction="ltr" dominant-baseline="alphabetic">Fragment n</text></g><g stroke-linecap="round" transform="translate(369.20001220703125 152.39999389648438) rotate(0 60 52.40000915527344)"><path d="M71.5 0.26 C80.91 0.9, 90.82 5.82, 98.48 11.69 C106.13 17.57, 114.01 27.16, 117.4 35.53 C120.79 43.91, 120.66 53.32, 118.82 61.93 C116.98 70.55, 112.87 80.62, 106.35 87.23 C99.83 93.84, 89.18 98.88, 79.69 101.6 C70.2 104.33, 59.03 105.04, 49.4 103.57 C39.76 102.1, 29.62 98.22, 21.87 92.78 C14.11 87.34, 6.46 79.28, 2.87 70.91 C-0.72 62.54, -1.67 51.32, 0.32 42.54 C2.32 33.77, 8.18 24.95, 14.83 18.28 C21.48 11.61, 29.33 5.1, 40.24 2.51 C51.15 -0.08, 71.93 1.86, 80.27 2.75 C88.62 3.64, 90.74 6.89, 90.34 7.84 M47.14 2.07 C56.39 -0.53, 68.35 -0.31, 77.78 1.91 C87.2 4.14, 97.14 8.98, 103.7 15.41 C110.26 21.83, 114.77 31.88, 117.12 40.45 C119.48 49.02, 120.39 58.63, 117.83 66.84 C115.28 75.04, 109.07 83.56, 101.8 89.66 C94.53 95.76, 84.2 101.15, 74.2 103.43 C64.2 105.72, 51.65 106.03, 41.8 103.4 C31.95 100.76, 21.62 93.92, 15.09 87.62 C8.56 81.33, 4.93 73.98, 2.61 65.62 C0.3 57.27, -1.44 46.29, 1.18 37.5 C3.8 28.71, 10.77 18.94, 18.34 12.88 C25.91 6.83, 42.1 2.71, 46.6 1.18 C51.1 -0.34, 45.17 2.89, 45.35 3.73" stroke="#1e1e1e" stroke-width="2" fill="none"></path></g><g transform="translate(409.25362395156117 192.24760124382692) rotate(0 20.019981384277344 12.5)"><text x="20.019981384277344" y="17.52" font-family="Virgil, Segoe UI Emoji" font-size="20px" fill="#1e1e1e" text-anchor="middle" style="white-space: pre;" direction="ltr" dominant-baseline="alphabetic">XOR</text></g><g stroke-linecap="round"><g transform="translate(292.60003662109375 59.057441314664175) rotate(0 48.30250926504323 51.073951592200274)"><path d="M-0.54 -1.19 C15.31 15.62, 79.7 84.36, 96.06 101.62 M1.37 0.8 C16.94 17.71, 78.82 85.72, 94.83 102.88" stroke="#1e1e1e" stroke-width="2" fill="none"></path></g><g transform="translate(292.60003662109375 59.057441314664175) rotate(0 48.30250926504323 51.073951592200274)"><path d="M72.64 91.38 C79.12 94.93, 88.62 101.92, 94.83 102.88 M72.64 91.38 C79.81 94.39, 86.26 99.71, 94.83 102.88" stroke="#1e1e1e" stroke-width="2" fill="none"></path></g><g transform="translate(292.60003662109375 59.057441314664175) rotate(0 48.30250926504323 51.073951592200274)"><path d="M85.22 79.8 C87.02 87.67, 91.76 99.04, 94.83 102.88 M85.22 79.8 C88.48 86.41, 90.94 95.4, 94.83 102.88" stroke="#1e1e1e" stroke-width="2" fill="none"></path></g></g><mask></mask><g stroke-linecap="round"><g transform="translate(283.6000061035156 201.25594091332187) rotate(0 42.033594290915744 3.969590451574504)"><path d="M0.39 -0.7 C14.62 0.62, 71.12 7.04, 85.03 8.43 M-0.86 1.55 C13.32 2.45, 70.61 5.36, 84.58 6.56" stroke="#1e1e1e" stroke-width="2" fill="none"></path></g><g transform="translate(283.6000061035156 201.25594091332187) rotate(0 42.033594290915744 3.969590451574504)"><path d="M60.58 13.55 C65.94 13.17, 74.48 9.28, 84.58 6.56 M60.58 13.55 C67.25 11.14, 72.77 9.11, 84.58 6.56" stroke="#1e1e1e" stroke-width="2" fill="none"></path></g><g transform="translate(283.6000061035156 201.25594091332187) rotate(0 42.033594290915744 3.969590451574504)"><path d="M61.7 -3.51 C66.83 0.77, 75.06 1.54, 84.58 6.56 M61.7 -3.51 C68.22 -1.28, 73.43 1.34, 84.58 6.56" stroke="#1e1e1e" stroke-width="2" fill="none"></path></g></g><mask></mask><g stroke-linecap="round"><g transform="translate(291.5999755859375 333.1999816894531) rotate(0 46 -43.19999694824219)"><path d="M1.1 0.53 C16.44 -13.98, 76.18 -71.76, 91.34 -86.06 M0.22 -0.24 C16.02 -15.21, 78.52 -73.53, 93.71 -88.01" stroke="#1e1e1e" stroke-width="2" fill="none"></path></g><g transform="translate(291.5999755859375 333.1999816894531) rotate(0 46 -43.19999694824219)"><path d="M82.47 -65.68 C85.87 -72.26, 88.27 -76.43, 93.71 -88.01 M82.47 -65.68 C87.77 -74.59, 91.94 -83.41, 93.71 -88.01" stroke="#1e1e1e" stroke-width="2" fill="none"></path></g><g transform="translate(291.5999755859375 333.1999816894531) rotate(0 46 -43.19999694824219)"><path d="M70.74 -78.13 C77.08 -81.82, 82.3 -82.99, 93.71 -88.01 M70.74 -78.13 C80.57 -82.3, 89.31 -86.27, 93.71 -88.01" stroke="#1e1e1e" stroke-width="2" fill="none"></path></g></g><mask></mask><g stroke-linecap="round"><g transform="translate(489.20001220703125 205) rotate(0 80.79998779296875 -0.39998626708984375)"><path d="M-0.9 -0.78 C25.98 -0.97, 134.93 -0.96, 161.97 -0.79 M0.83 1.42 C27.53 1.41, 134.62 1.26, 161.22 0.75" stroke="#1e1e1e" stroke-width="2" fill="none"></path></g><g transform="translate(489.20001220703125 205) rotate(0 80.79998779296875 -0.39998626708984375)"><path d="M137.81 9.51 C144.8 7.19, 154.42 3.04, 161.22 0.75 M137.81 9.51 C147.1 6.4, 156.54 3.53, 161.22 0.75" stroke="#1e1e1e" stroke-width="2" fill="none"></path></g><g transform="translate(489.20001220703125 205) rotate(0 80.79998779296875 -0.39998626708984375)"><path d="M137.65 -7.59 C144.74 -3.83, 154.42 -1.92, 161.22 0.75 M137.65 -7.59 C147.01 -4.17, 156.51 -0.5, 161.22 0.75" stroke="#1e1e1e" stroke-width="2" fill="none"></path></g></g><mask></mask><g stroke-linecap="round" transform="translate(652.3999633789062 157) rotate(0 150 60.80000305175781)"><path d="M30.4 0 C80.29 -0.67, 133.91 -0.38, 269.6 0 M30.4 0 C116.79 -0.19, 203.22 0.54, 269.6 0 M269.6 0 C289.93 0.62, 299.65 10.55, 300 30.4 M269.6 0 C290.83 -0.59, 301.75 10.02, 300 30.4 M300 30.4 C300 45.19, 299.64 56.24, 300 91.2 M300 30.4 C300.43 54.37, 301.25 77.14, 300 91.2 M300 91.2 C301.79 109.81, 287.99 123.26, 269.6 121.6 M300 91.2 C301.76 112.39, 287.64 119.94, 269.6 121.6 M269.6 121.6 C195.24 120.48, 119.97 120.52, 30.4 121.6 M269.6 121.6 C199.39 120.75, 127.27 121.34, 30.4 121.6 M30.4 121.6 C11.55 119.9, -0.84 109.75, 0 91.2 M30.4 121.6 C8.52 123.65, 2.13 110.73, 0 91.2 M0 91.2 C-0.65 73.28, 1.02 57.66, 0 30.4 M0 91.2 C-1.01 72.56, -0.78 56.25, 0 30.4 M0 30.4 C-1.99 9.87, 10.92 -1.35, 30.4 0 M0 30.4 C-1.92 9.69, 8.7 -2.25, 30.4 0" stroke="#1e1e1e" stroke-width="2" fill="none"></path></g><g transform="translate(778.0000610351562 204.1999969482422) rotate(0 22.5999755859375 12.5)"><text x="0" y="17.52" font-family="Virgil, Segoe UI Emoji" font-size="20px" fill="#1e1e1e" text-anchor="start" style="white-space: pre;" direction="ltr" dominant-baseline="alphabetic">Rune</text></g></svg>